<svg width="14" height="14" viewBox="0 0 14 14" fill="none" xmlns="http://www.w3.org/2000/svg">
<path d="M3.00004 11.6668C4.4728 11.6668 5.66671 10.4729 5.66671 9.00016C5.66671 7.52741 4.4728 6.3335 3.00004 6.3335C1.52728 6.3335 0.333374 7.52741 0.333374 9.00016C0.333374 10.4729 1.52728 11.6668 3.00004 11.6668Z" fill="#5C6F82"/>
<path d="M9.33336 13.6667C10.2538 13.6667 11 12.9205 11 12C11 11.0795 10.2538 10.3333 9.33336 10.3333C8.41289 10.3333 7.6667 11.0795 7.6667 12C7.6667 12.9205 8.41289 13.6667 9.33336 13.6667Z" fill="#5C6F82"/>
<path d="M9.66673 8.33334C11.8759 8.33334 13.6667 6.54247 13.6667 4.33334C13.6667 2.1242 11.8759 0.333336 9.66673 0.333336C7.45759 0.333336 5.66673 2.1242 5.66673 4.33334C5.66673 6.54247 7.45759 8.33334 9.66673 8.33334Z" fill="#5C6F82"/>
</svg>
