<svg width="80" height="80" viewBox="0 0 80 80" fill="none" xmlns="http://www.w3.org/2000/svg">
<mask id="mask0_1105_12307" style="mask-type:alpha" maskUnits="userSpaceOnUse" x="0" y="5" width="80" height="70">
<path fill-rule="evenodd" clip-rule="evenodd" d="M73.7625 12.0934C69.55 7.73424 63.9153 5.33349 57.8959 5.33349C51.9694 5.33349 46.397 7.66911 42.2052 11.9108L40.0417 14.1013L37.8762 11.9102C33.6847 7.66895 28.1134 5.33333 22.1886 5.33333C16.2619 5.33333 10.6897 7.66895 6.49844 11.9102C2.30781 16.1502 0 21.788 0 27.7849C0 33.7818 2.30781 39.4195 6.49844 43.6596L34.23 71.7194C35.832 73.3401 37.9358 74.1505 40.04 74.1505C42.1437 74.1504 44.248 73.3401 45.8495 71.7196L73.4025 43.8428C82.0564 35.0861 82.218 20.8436 73.7625 12.0934ZM70.4973 40.9034L42.9445 68.7805C41.3428 70.401 38.7366 70.401 37.135 68.7803L9.40328 40.72C5.98859 37.265 4.10812 32.6713 4.10812 27.7847C4.10812 22.8981 5.98859 18.3044 9.40328 14.8492C12.8186 11.3933 17.3592 9.49011 22.1886 9.49011C27.0161 9.49011 31.5558 11.3933 34.9712 14.8492L37.1378 17.0415L33.8202 20.4009C33.0183 21.2129 33.0189 22.5288 33.8212 23.3402C34.2223 23.7457 34.7477 23.9484 35.2731 23.9484C35.7992 23.9484 36.325 23.7451 36.7261 23.3391L45.1101 14.8491C48.5256 11.3932 53.0661 9.48995 57.8955 9.48995C62.8 9.48995 67.3916 11.4466 70.8247 14.9993C77.7147 22.1291 77.5676 33.7495 70.4973 40.9034ZM68.4998 17.0536C71.0844 19.6691 72.632 23.1451 72.8578 26.8415C72.9278 27.9872 72.0669 28.9733 70.9347 29.0437C70.8916 29.0465 70.8486 29.0478 70.8061 29.0478C69.7294 29.0478 68.8252 28.1996 68.7578 27.0974C68.5939 24.4137 67.4708 21.8906 65.5952 19.9927C64.2647 18.6465 62.6178 17.6693 60.8323 17.1667C59.7394 16.859 59.0998 15.7131 59.4039 14.6073C59.708 13.5014 60.8403 12.8543 61.9333 13.162C64.3991 13.8565 66.6698 15.202 68.4998 17.0536Z" fill="white"/>
</mask>
<g mask="url(#mask0_1105_12307)">
<rect x="-3.75" y="5.33333" width="125" height="125" fill="#00C5CA"/>
</g>
</svg>
