<svg width="56" height="36" viewBox="0 0 56 36" fill="none" xmlns="http://www.w3.org/2000/svg">
<path fill-rule="evenodd" clip-rule="evenodd" d="M38.8276 10.6409H41.7748C43.7313 10.6409 44.7096 10.1131 44.7096 9.05755V1.58741C44.7096 0.526439 43.6984 -0.00269624 41.676 1.03304e-05H35.4441V15.2976H38.8153L38.8276 10.6409ZM38.8276 1.77823H41.3549V8.86674H38.8276V1.77823ZM5.21928 4.63638H0V19.9867H2.82368V15.4397V15.3057H5.29337C6.93983 15.3057 7.76306 14.7766 7.76306 13.7183V6.22784C7.74934 5.16687 6.90141 4.63638 5.21928 4.63638ZM4.93525 13.5275H2.82366V6.4146H4.93525V13.5275ZM14.0072 4.63638C15.6537 4.63638 16.4769 5.16822 16.4769 6.22784L16.4399 15.3544H11.0889C9.50829 15.3409 8.71799 14.7996 8.71799 13.7305V10.6125C8.71799 9.55151 9.54122 9.02102 11.1877 9.02102H13.6574V6.44302H11.5417V7.85991H8.7715V6.23596C8.7715 5.18852 9.59473 4.6648 11.2412 4.6648L14.0072 4.63638ZM11.5375 10.7952V13.5356H13.6574V10.7952H11.5375ZM20.1732 19.9867H22.9928C24.6393 19.9867 25.4625 19.4589 25.4625 18.3952V4.63638H20.2432C18.5583 4.63638 17.7132 5.16687 17.7077 6.22784V13.7183C17.7077 14.7779 18.5309 15.3057 20.1774 15.3057H22.647V15.4194V18.2085H20.5272V16.8038H17.7077V18.3952C17.7077 19.4508 18.5309 19.9867 20.1732 19.9867ZM20.5272 13.5275V6.4146H22.6429V13.5275H20.5272ZM31.6449 15.3097H28.9118C27.2489 15.307 26.4202 14.7766 26.4257 13.7183V6.22784C26.4257 5.16687 27.2489 4.63638 28.8953 4.63638H31.7108C33.3572 4.63638 34.1805 5.16822 34.1805 6.22784V13.7183C34.175 14.7793 33.3298 15.3097 31.6449 15.3097ZM31.3774 6.4146H29.2452L29.2617 13.5275H31.3774V6.4146ZM55.1029 1.61178C55.1029 0.553515 54.126 0.0230264 52.1722 0.0203199H48.8052C46.8253 0.0203199 45.8415 0.552161 45.8415 1.61178V15.3138H49.2086V10.6287H51.7523V14.5465C51.7567 19.3591 49.8206 23.9758 46.3708 27.3792C42.921 30.7826 38.2407 32.6932 33.3614 32.69C27.6527 32.6967 22.2569 30.118 18.7244 25.6949L20.4079 24.4322L13.9414 20.1247V29.4178L16.0983 27.7207C21.8232 34.9552 31.5702 37.8121 40.3717 34.8354C49.1732 31.8586 55.0918 23.7035 55.1111 14.5262L55.1029 1.61178ZM51.7523 8.85051H49.2086V1.79854H51.7523V8.85051Z" fill="#0066CC"/>
</svg>
