<?xml version="1.0" encoding="UTF-8"?>
<svg width="99px" height="98px" viewBox="0 0 99 98" version="1.1" xmlns="http://www.w3.org/2000/svg" xmlns:xlink="http://www.w3.org/1999/xlink">
    <title>060B4BFA-A70E-4B4E-8EAE-494B9ACA42BF</title>
    <defs>
        <path d="M22.6788316,75.0571351 C25.1101483,76.5300678 26.5218289,79.2326541 26.3442014,81.9841926 C26.3442014,82.2298972 26.5436463,82.4293051 26.7900762,82.4293051 L29.9004071,82.4320977 C33.5739587,82.6690338 36.4325915,85.7177739 36.4325915,89.3994513 C36.4325915,93.0811288 33.5739587,96.129869 29.8137214,96.3695974 L10.6486518,96.3695974 L10.5546257,96.3663112 C7.47440434,96.1507418 5.07579635,93.60728 5.0407536,90.5188546 C5.00676963,87.4312199 7.34857107,84.8341015 10.4232447,84.5505917 L10.5820328,84.5359501 L10.7398499,84.5587947 C10.7683752,84.5629238 10.9092639,84.5776489 10.9066797,84.5775955 C11.0571706,84.5824083 11.2020674,84.517495 11.2927944,84.4091078 C11.3828927,84.2999518 11.415755,84.1561946 11.3892956,84.0472866 C11.2097373,83.3790071 11.1134536,82.6918808 11.1062664,82.0696663 C10.925925,79.2326541 12.3376055,76.5300678 14.7689222,75.0571351 C17.199976,73.5843616 20.2477778,73.5843616 22.6788316,75.0571351 Z M82.1526492,85.1140148 C82.8382534,85.1140148 83.3940454,85.6692543 83.3940454,86.354177 C83.3940454,87.0390997 82.8382534,87.5943392 82.1526492,87.5943392 C79.6242685,87.5943392 77.70249,88.959265 76.2598458,91.3286276 C75.7310557,92.1970991 75.308498,93.139265 74.9883662,94.0790091 C74.8747598,94.4124996 74.7823295,94.722306 74.7120198,94.9921321 L74.6886419,95.0837271 L74.6886419,95.0837271 L74.6698036,95.1565974 C74.6693314,95.1676276 74.6679128,95.1745081 74.6658727,95.1818833 L74.6618036,95.1925974 L74.6588036,95.2055974 L74.6608036,95.1945974 L74.6577917,95.205646 C74.6138578,95.3163718 74.4485652,95.5364992 73.9494209,96.2012313 L73.0260861,96.2571584 L72.6621273,96.0642023 L72.5386828,95.9558637 L72.4621771,95.8718205 C72.433781,95.8366737 72.433781,95.8366737 72.3930299,95.7801881 C72.2661005,95.5545071 72.2661005,95.5545071 72.2535845,95.5112271 C72.2330362,95.4529104 72.2330362,95.4529104 72.2260643,95.4301666 C72.2140133,95.3906638 72.2140133,95.3906638 72.2017171,95.3493384 C72.1740714,95.2566101 72.1532642,95.1882168 72.1251637,95.0990807 C72.036172,94.816795 71.9316073,94.5132278 71.8055665,94.1823707 C71.4383941,93.2185436 70.9803956,92.2620583 70.4242431,91.3762889 C68.9162733,88.9745854 67.0245347,87.5943392 64.6839061,87.5943392 C63.998302,87.5943392 63.4425099,87.0390997 63.4425099,86.354177 C63.4425099,85.6692543 63.998302,85.1140148 64.6839061,85.1140148 C68.0196636,85.1140148 70.6095685,87.0036556 72.5275163,90.0583202 C72.8273531,90.5358624 73.1008533,91.0269066 73.3498486,91.5258373 C73.5895168,91.0133516 73.8557541,90.5042652 74.1386464,90.03965 C75.9920135,86.9957267 78.6414126,85.1140148 82.1526492,85.1140148 Z M16.1646607,77.3616321 C14.5915408,78.3146547 13.6781254,80.0633393 13.7973741,81.9650862 C13.8039615,82.4295647 13.8691375,82.8946921 13.9981379,83.3759943 C14.2352129,84.3402256 14.0024315,85.3585347 13.3645627,86.1312795 C12.7369398,86.8813941 11.7985188,87.3018034 10.827236,87.2707246 C10.7573687,87.2688359 10.6455086,87.259312 10.5405169,87.248135 C8.92789967,87.4620518 7.71649162,88.8487174 7.73434331,90.4887397 C7.75349543,92.1591242 9.03987806,93.5372688 10.6997557,93.6752883 L29.7674174,93.6752883 C32.0040351,93.5101837 33.7386343,91.6468022 33.7386343,89.3994513 C33.7386343,87.1385935 31.9831218,85.2663342 29.8137214,85.1236142 L26.7900762,85.1236142 C25.0560055,85.1236142 23.6502443,83.7181138 23.6529582,81.8987189 C23.7696284,80.0633393 22.856213,78.3146547 21.2830931,77.3616321 C19.7099709,76.4086081 17.737783,76.4086081 16.1646607,77.3616321 Z M17.7132468,12.22225 C20.1445636,13.6951828 21.5562441,16.397769 21.3786166,19.1493075 C21.3786166,19.3950121 21.5780615,19.59442 21.8244914,19.59442 L24.9348223,19.5972126 C26.9509405,19.7272479 28.7216024,20.7042076 29.9089693,22.1679114 L30.0648902,22.0290994 C33.1164256,19.3536876 37.1010028,17.7318683 41.4545694,17.7318683 C51.0324162,17.7318683 58.8243536,25.5814736 58.8243536,35.2302058 C58.8243536,43.7151023 52.7983082,50.8086607 44.8316091,52.3963935 L44.4938445,52.4601927 L48.4357832,57.6474751 L42.1715294,57.6474751 L41.6542197,60.135797 C41.268164,61.9990575 41.8521096,63.9502591 43.1816155,65.2877909 L43.359239,65.4587137 L43.4621217,65.5517664 C45.6877764,67.5994661 46.6253064,70.6952784 45.9170363,73.6378402 C45.8117935,74.0732749 45.7586893,74.5212463 45.7586893,74.9697582 C45.7586893,76.4589064 46.3474067,77.8919543 47.3828986,78.9444412 L47.5822543,79.1372435 L50.6053299,81.9180168 L48.8328307,83.8736365 L45.8095405,81.0928632 C44.1064523,79.5259898 43.1297646,77.2942382 43.1297646,74.9697582 C43.1297646,74.3104998 43.2080799,73.6521061 43.3622429,73.0129497 C43.8243788,71.093864 43.257397,69.0785987 41.880923,67.691594 L41.6968103,67.5143029 L41.5937131,67.421034 C39.5228021,65.5151103 38.5567018,62.6561906 39.0249762,59.8898951 L39.0806521,59.5939083 L39.4853166,57.647367 L34.5428739,57.647367 L38.1214513,52.4038855 C30.1328676,50.8334457 24.0847853,43.7306396 24.0847853,35.2302058 C24.0847853,34.6117412 24.1167989,34.0006685 24.1792445,33.398581 L24.1656277,33.535044 L24.1656277,33.535044 L5.68306701,33.5347123 L5.5890409,33.5314261 C2.50881957,33.3158567 0.110211577,30.772395 0.0751688331,27.6839696 C0.0411848628,24.5963348 2.3829863,21.9992164 5.45765988,21.7157066 L5.61644801,21.701065 L5.77426515,21.7239096 C5.78567526,21.7255612 5.81506351,21.7289082 5.84605639,21.7323266 L5.92747538,21.741172 C5.93638969,21.7421406 5.94161177,21.7427211 5.94109494,21.7427104 C6.0915858,21.7475232 6.23648258,21.68261 6.32720966,21.5742227 C6.41730793,21.4650667 6.45017026,21.3213095 6.42371084,21.2124015 C6.24415248,20.544122 6.14786886,19.8569957 6.14068159,19.2347812 C5.96034019,16.397769 7.37202071,13.6951828 9.80333745,12.22225 C12.2343913,10.7494765 15.282193,10.7494765 17.7132468,12.22225 Z M83.9210438,47.7735665 C86.3523605,49.2464993 87.764041,51.9490856 87.5864135,54.7006241 C87.5864135,54.9463287 87.7858584,55.1457366 88.0322883,55.1457366 L91.1426193,55.1485292 C94.8161709,55.3854653 97.6748036,58.4342054 97.6748036,62.1158827 C97.6748036,65.7975603 94.8161708,68.8463005 91.0559335,69.0860289 L71.8908639,69.0860289 L71.7968378,69.0827427 C68.7166165,68.8671733 66.3180085,66.3237115 66.2829658,63.2352861 C66.2489818,60.1476514 68.5907832,57.550533 71.6654568,57.2670232 L71.8242449,57.2523816 L71.9820621,57.2752262 C72.0105874,57.2793553 72.151476,57.2940803 72.1488919,57.294027 C72.2993827,57.2988398 72.4442795,57.2339265 72.5350066,57.1255393 C72.6251049,57.0163833 72.6579672,56.872626 72.6315078,56.7637181 C72.4519494,56.0954385 72.3556658,55.4083123 72.3484785,54.7860978 C72.1681371,51.9490856 73.5798176,49.2464993 76.0111344,47.7735665 C78.4421882,46.3007931 81.48999,46.3007931 83.9210438,47.7735665 Z M20.0263391,56.1768967 C20.7119432,56.1768967 21.2677352,56.7321362 21.2677352,57.4170589 C21.2677352,58.1019816 20.7119432,58.6572211 20.0263391,58.6572211 C17.4979583,58.6572211 15.5761799,60.0221469 14.1335357,62.3915095 C13.6047456,63.259981 13.1821879,64.2021468 12.8620561,65.1418909 C12.7484497,65.4753815 12.6560194,65.7851879 12.5857097,66.055014 L12.5438036,66.2185974 C12.5430213,66.2305095 12.5416026,66.2373899 12.5395626,66.2447652 L12.5368036,66.2515974 L12.5338036,66.2625974 L12.5348036,66.2555974 L12.5314816,66.2685279 C12.4875477,66.3792537 12.3222551,66.5993811 11.8231108,67.2641132 L10.899776,67.3200402 L10.5358172,67.1270842 L10.4123727,67.0187456 L10.335867,66.9347024 C10.3074709,66.8995556 10.3074709,66.8995556 10.2667198,66.84307 C10.1397904,66.617389 10.1397904,66.617389 10.1272744,66.5741089 C10.106726,66.5157923 10.106726,66.5157923 10.0997541,66.4930485 C10.0877032,66.4535457 10.0877032,66.4535457 10.075407,66.4122203 C10.0477613,66.319492 10.0269541,66.2510986 9.99885359,66.1619626 C9.90986187,65.8796769 9.80529724,65.5761097 9.6792564,65.2452526 C9.312084,64.2814255 8.85408549,63.3249402 8.29793296,62.4391708 C6.78996323,60.0374673 4.89822464,58.6572211 2.55759603,58.6572211 C1.87199184,58.6572211 1.31619983,58.1019816 1.31619983,57.4170589 C1.31619983,56.7321362 1.87199184,56.1768967 2.55759603,56.1768967 C5.89335344,56.1768967 8.48325844,58.0665375 10.4012061,61.1212021 C10.701043,61.5987442 10.9745432,62.0897884 11.2235385,62.5887192 C11.4632067,62.0762335 11.729444,61.5671471 12.0123363,61.1025318 C13.8657034,58.0586085 16.5151025,56.1768967 20.0263391,56.1768967 Z M77.4068729,50.0780636 C75.833753,51.0310862 74.9203375,52.7797708 75.0395862,54.6815177 C75.0461736,55.1459961 75.1113497,55.6111236 75.2403501,56.0924258 C75.4774251,57.0566571 75.2446437,58.0749662 74.6067748,58.8477109 C73.979152,59.5978255 73.0407309,60.0182348 72.0694482,59.987156 C71.9995808,59.9852674 71.8877208,59.9757435 71.7827291,59.9645664 C70.1701118,60.1784833 68.9587038,61.5651488 68.9765555,63.2051712 C68.9957076,64.8755557 70.2820902,66.2537003 71.9419679,66.3917198 L91.0096296,66.3917198 C93.2462472,66.2266152 94.9808465,64.3632337 94.9808465,62.1158827 C94.9808465,59.8550249 93.225334,57.9827657 91.0559335,57.8400457 L88.0322883,57.8400457 C86.2982176,57.8400457 84.8924564,56.4345453 84.8951704,54.6151504 C85.0118406,52.7797708 84.0984252,51.0310862 82.5253053,50.0780636 C80.952183,49.1250395 78.9799951,49.1250395 77.4068729,50.0780636 Z M41.2673638,52.7275706 L39.5406737,54.9989858 L43.1117414,54.9989858 L41.2673638,52.7275706 Z M41.4545694,20.3802495 C33.3264129,20.3802495 26.71371,27.041893 26.71371,35.2302058 C26.71371,43.4185186 33.3264129,50.080162 41.4545694,50.080162 C49.582726,50.080162 56.1954289,43.4185186 56.1954289,35.2302058 C56.1954289,27.041893 49.582726,20.3802495 41.4545694,20.3802495 Z M41.3606984,22.2719968 C48.5051941,22.2719968 54.3176869,28.1273996 54.3176869,35.3248796 C54.3176869,36.0562241 53.7291425,36.6491243 53.0031709,36.6491243 C52.2771994,36.6491243 51.688655,36.0562241 51.688655,35.3248796 C51.688655,29.5879271 47.0555039,24.9204861 41.3606984,24.9204861 C40.6347269,24.9204861 40.0461825,24.3275859 40.0461825,23.5962414 C40.0461825,22.864897 40.6347269,22.2719968 41.3606984,22.2719968 Z M11.199076,14.526747 C9.62595606,15.4797696 8.71254061,17.2284542 8.83178931,19.1302011 C8.83837671,19.5946796 8.90355273,20.059807 9.03255316,20.5411092 C9.26962812,21.5053405 9.03684672,22.5236496 8.39897791,23.2963944 C7.77135508,24.046509 6.83293401,24.4669183 5.86165128,24.4358395 C5.79178388,24.4339508 5.67992383,24.4244269 5.57493215,24.4132499 C3.96231489,24.6271667 2.75090685,26.0138323 2.76875854,27.6538546 C2.78791066,29.3242391 4.07429329,30.7023837 5.73417094,30.8404032 L24.6382779,30.8399906 L24.6300816,30.8719578 C25.2771766,28.3381864 26.4748691,26.0246576 28.0864608,24.0690816 L28.0266851,24.1420131 L28.0266851,24.1420131 C27.3155108,23.0906958 26.1571725,22.3748477 24.8481366,22.2887291 L21.8244914,22.2887291 C20.0904207,22.2887291 18.6846595,20.8832287 18.6873734,19.0638338 C18.8040437,17.2284542 17.8906282,15.4797696 16.3175083,14.526747 C14.7443861,13.573723 12.7721982,13.573723 11.199076,14.526747 Z M80.4409538,14.0113817 C81.1265579,14.0113817 81.68235,14.5666212 81.68235,15.2515439 C81.68235,15.9364666 81.1265579,16.4917061 80.4409538,16.4917061 C77.9125731,16.4917061 75.9907946,17.8566319 74.5481504,20.2259945 C74.0193603,21.094466 73.5968026,22.0366319 73.2766708,22.9763759 C73.1630644,23.3098665 73.0706341,23.6196729 73.0003244,23.889499 L72.9733246,23.9956618 L72.9733246,23.9956618 L72.95853,24.0584562 L72.95853,24.0584562 L72.9597348,24.0397154 L72.9561333,24.00966 L72.9561333,24.00966 L72.9478952,23.97832 C72.9478331,24.0441571 72.9514349,24.0587541 72.9524194,24.0687045 L72.9524194,24.0687045 L72.9525008,24.0745784 L72.9510317,24.0883006 L72.9510317,24.0883006 L72.9558036,24.0685974 L72.9541773,24.0792502 C72.9256166,24.1825038 72.7752655,24.3827328 72.2377255,25.0985982 L71.3143907,25.1545252 L70.9504319,24.9615692 L70.8269874,24.8532306 L70.7504817,24.7691874 C70.7220856,24.7340406 70.7220856,24.7340406 70.6813345,24.677555 C70.5544051,24.451874 70.5544051,24.451874 70.5418891,24.408594 C70.5213408,24.3502773 70.5213408,24.3502773 70.5143688,24.3275335 C70.5023179,24.2880307 70.5023179,24.2880307 70.4900217,24.2467053 C70.462376,24.153977 70.4415688,24.0855836 70.4134683,23.9964476 C70.3244766,23.7141619 70.2199119,23.4105947 70.0938711,23.0797376 C69.7266987,22.1159105 69.2687002,21.1594252 68.7125477,20.2736558 C67.2045779,17.8719523 65.3128393,16.4917061 62.9722107,16.4917061 C62.2866065,16.4917061 61.7308145,15.9364666 61.7308145,15.2515439 C61.7308145,14.5666212 62.2866065,14.0113817 62.9722107,14.0113817 C66.3079681,14.0113817 68.8978731,15.9010225 70.8158209,18.9556871 C71.1156577,19.4332293 71.3891579,19.9242734 71.6381532,20.4232042 C71.8778214,19.9107185 72.1440587,19.4016321 72.426951,18.9370168 C74.2803181,15.8930935 76.9297172,14.0113817 80.4409538,14.0113817 Z M52.6761337,10.4372689 C52.6751044,10.4455268 52.6718863,10.4589322 52.664514,10.4920626 L52.6748036,10.4455974 L52.6798036,10.4265974 L52.6780395,10.4374659 L52.6780395,10.4374659 L52.6748036,10.4455974 L52.6708036,10.4605974 L52.6727025,10.4553386 C52.6260246,10.5719545 52.460732,10.7920818 51.9615877,11.456814 L51.0382529,11.512741 L50.6742941,11.3197849 L50.5508496,11.2114463 L50.4743439,11.1274031 C50.4459478,11.0922563 50.4459478,11.0922563 50.4051967,11.0357707 C50.3099997,10.86651 50.2862004,10.8241948 50.2749704,10.7953572 L50.2657513,10.7668097 L50.2657513,10.7668097 C50.2452029,10.7084931 50.2452029,10.7084931 50.238231,10.6857492 C50.2261801,10.6462465 50.2261801,10.6462465 50.2138839,10.604921 C50.1862381,10.5121928 50.165431,10.4437994 50.1373305,10.3546633 C50.0483388,10.0723776 49.9437741,9.76881039 49.8177333,9.43795336 C49.4505609,8.47412621 48.9925624,7.51764094 48.4364099,6.63187151 C46.9284401,4.23016802 45.0367015,2.84992183 42.6960729,2.84992183 C42.0104687,2.84992183 41.4546767,2.2946823 41.4546767,1.60975962 C41.4546767,0.92483695 42.0104687,0.369597418 42.6960729,0.369597418 C46.0318303,0.369597418 48.6217353,2.25923826 50.539683,5.31390284 C50.8395198,5.79144499 51.1130201,6.28248919 51.3620154,6.78141991 C51.6016836,6.26893424 51.8679209,5.7598478 52.1508132,5.29523257 C54.0041803,2.25130928 56.6535794,0.369597418 60.1648159,0.369597418 C60.8504201,0.369597418 61.4062121,0.92483695 61.4062121,1.60975962 C61.4062121,2.2946823 60.8504201,2.84992183 60.1648159,2.84992183 C57.6364352,2.84992183 55.7146568,4.21484763 54.2720126,6.5842102 C53.7432224,7.45268175 53.3206648,8.39484759 53.000533,9.33459168 C52.8869266,9.66808222 52.7944963,9.97788862 52.7241866,10.2477147 L52.7008086,10.3393097 L52.7008086,10.3393097 L52.6823922,10.4166719 L52.6823922,10.4166719 L52.683597,10.3979311 L52.6799955,10.3678757 L52.6799955,10.3678757 L52.6717574,10.3365357 C52.6716953,10.4023728 52.6752971,10.4169698 52.6762816,10.4269202 L52.6762816,10.4269202 Z" id="path-1"></path>
    </defs>
    <g id="MVP---WISP-Light" stroke="none" stroke-width="1" fill="none" fill-rule="evenodd">
        <g id="CANCELED_BY_USER(8)" transform="translate(-591.000000, -215.000000)">
            <g id="ThankYou" transform="translate(452.000000, 215.000000)">
                <g id="pictograms/unrecognized" transform="translate(139.000000, 0.000000)">
                    <g id="colors/@aqua" transform="translate(0.125196, 0.630403)">
                        <mask id="mask-2" fill="white">
                            <use xlink:href="#path-1"></use>
                        </mask>
                        <g id="Mask" fill-rule="nonzero"></g>
                        <g mask="url(#mask-2)" fill="#00C5CA" id="Rectangle-Copy-9">
                            <g transform="translate(-3.200000, -2.400000)">
                                <rect x="0" y="0" width="105.6" height="104"></rect>
                            </g>
                        </g>
                    </g>
                </g>
            </g>
        </g>
    </g>
</svg>