<?xml version="1.0" encoding="UTF-8"?>
<svg width="98px" height="87px" viewBox="0 0 98 87" version="1.1" xmlns="http://www.w3.org/2000/svg" xmlns:xlink="http://www.w3.org/1999/xlink">
    <title>6E7A223F-E1FF-486C-B470-A02F555CA053</title>
    <defs>
        <path d="M39.020344,0.768576442 C39.6456287,0.145335104 40.6563192,0.145335104 41.2816039,0.768576442 C41.9068887,1.39181778 41.9068887,2.39920531 41.2816039,3.02244665 L41.2816039,3.02244665 L39.4553247,4.8411637 C39.2794134,8.12792493 40.3092941,11.0703891 42.4122339,13.1664566 C44.5151737,15.26093 47.4720829,16.295415 50.7632236,16.1121087 L50.7632236,16.1121087 L52.5879037,14.2933917 C53.2131884,13.6701503 54.2238789,13.6701503 54.8491636,14.2933917 C55.4744484,14.916633 55.4744484,15.9240205 54.8491636,16.5472619 L54.8491636,16.5472619 L53.0244836,18.3659789 C52.8485723,21.6527402 53.878453,24.5952044 55.9813928,26.6912718 C58.2010737,28.9021049 61.3674773,29.9429657 64.8777076,29.6114205 C64.9048939,29.6082325 64.9272826,29.6209843 64.9544689,29.6193903 C65.0040439,29.6177963 65.0504205,29.6177963 65.0999955,29.6193903 C65.1271818,29.6209843 65.1495705,29.6082325 65.1767568,29.6114205 C65.2343278,29.6162024 65.2807044,29.6480817 65.3366762,29.6592395 C65.4198343,29.6751792 65.5029923,29.683149 65.5813528,29.7118404 C65.6229319,29.7261861 65.6597133,29.7485017 65.6996932,29.7676293 C65.7700577,29.7995086 65.830827,29.8409518 65.8947948,29.882395 C65.9715561,29.931808 66.045119,29.978033 66.1122851,30.0401978 C66.1266779,30.0529495 66.144269,30.0561374 66.1586618,30.0704831 C66.1762529,30.0896107 66.1826497,30.1135203 66.1986416,30.1310539 C66.2482166,30.1852488 66.2865973,30.2458196 66.3281763,30.3063903 C66.3793505,30.3797129 66.4289255,30.4498474 66.4673062,30.5327337 C66.4880957,30.5757709 66.507286,30.6156201 66.5232779,30.6602512 C66.548865,30.7319797 66.5552618,30.8068962 66.5712537,30.8834066 C66.5840473,30.9407895 66.6160312,30.9886085 66.6208288,31.0491793 C66.6224279,31.0730888 66.6112336,31.0954043 66.6128328,31.1209078 C66.6160312,31.1719148 66.6160312,31.2213278 66.6128328,31.2723347 C66.6112336,31.2962442 66.6224279,31.3185598 66.6208288,31.3440633 C66.2913948,34.850792 67.33247,38.000472 69.5521509,40.2128991 C71.6550906,42.3073725 74.6088015,43.3370756 77.9031406,43.1585512 L77.9031406,43.1585512 L79.7278206,41.3382402 C80.3531054,40.7149989 81.365395,40.7149989 81.9906798,41.3382402 C82.6143653,41.9598876 82.6143653,42.9688691 81.9906798,43.5921104 L81.9906798,43.5921104 L80.1644005,45.4124214 C79.9884892,48.6991827 81.01837,51.6400529 83.1197106,53.7361203 C85.2226503,55.8305938 88.1779604,56.8650788 91.4722995,56.6817725 L91.4722995,56.6817725 L93.2969795,54.8630554 C93.9222643,54.2398141 94.9329547,54.2398141 95.5582395,54.8630554 C96.1835242,55.4862968 96.1835242,56.4952783 95.5582395,57.1248955 L95.5582395,57.1248955 L93.2969795,59.3787657 C85.7455867,66.9054808 75.7058484,71.0497966 65.0264326,71.0497966 C54.9579088,71.0497966 45.4602972,67.3629495 38.0784189,60.6332182 C38.0160503,60.5869932 37.9424874,60.5630836 37.8865156,60.5072948 L37.8865156,60.5072948 L35.8859243,62.5013483 L35.6252557,62.761165 L35.6252557,62.761165 L25.9757207,72.3775716 L28.2369806,74.6314418 L20.3209716,82.5215815 C18.2084367,84.6256188 15.3986533,85.7860272 12.4049626,85.7860272 C9.4128711,85.7860272 6.59988931,84.6256188 4.48895357,82.5215815 C1.70315808,79.743296 0.583722458,75.6483932 1.570425,71.8324347 C2.01180247,70.1316712 3.28476068,68.8389635 4.98150524,68.3767129 C6.65746028,67.9208382 8.39418468,68.3783069 9.62556386,69.6056619 C10.8697366,70.8457687 11.3478955,72.5943512 10.8761334,74.1675972 C10.7066188,74.7334557 10.8585422,75.3423514 11.2759318,75.7583769 C11.8996174,76.3816183 12.9135062,76.3784303 13.5371918,75.7583769 L13.5371918,75.7583769 L21.4532008,67.8682372 L23.7144607,70.1221074 L25.4767722,68.3655551 L24.3461422,67.23862 C23.7208575,66.6153787 23.7208575,65.6079911 24.3461422,64.9847498 C24.9698278,64.3615085 25.9821174,64.3615085 26.6074022,64.9847498 L26.6074022,64.9847498 L27.7396314,66.1116849 L33.6262635,60.2442901 L35.6268549,58.2486427 L35.6268549,58.2486427 L35.5807152,58.1900791 C35.5541804,58.148754 35.5335686,58.1041229 35.503717,58.0637424 C28.7487226,50.7059879 25.0481883,41.2378203 25.0481883,31.1990122 C25.0481883,20.5544965 29.206092,10.5491617 36.7574849,3.02244665 L36.7574849,3.02244665 Z M6.25926104,71.3893117 C6.07535376,71.3893117 5.92183116,71.4195971 5.82428034,71.4466945 C5.25016979,71.6013094 4.81838748,72.0428384 4.66806327,72.6230426 C3.96281883,75.3503212 4.76081651,78.2768458 6.75181271,80.2613354 C8.25985241,81.7628529 10.2684397,82.5917161 12.4065618,82.5917161 C14.546283,82.5917161 16.5532711,81.7628529 18.0613108,80.2613354 L18.0613108,80.2613354 L23.7128615,74.625066 L21.4500024,72.3711957 L15.7952533,78.0074652 C13.9257958,79.8708134 10.8825301,79.8724073 9.01147347,78.0074652 C7.76250316,76.7609826 7.30193536,74.9374836 7.81207816,73.246284 C7.94481124,72.8063489 7.76730074,72.259618 7.36270472,71.8547502 C6.99009258,71.4833558 6.57909979,71.3893117 6.25926104,71.3893117 Z M77.1019445,48.3277882 C67.0366191,57.4373131 55.9110283,62.4790327 47.0818796,62.4790327 C46.6548949,62.4790327 46.2407037,62.4551232 45.8249134,62.4312137 C51.5516261,65.9411304 58.1355068,67.8538915 65.0280318,67.8554855 C73.556532,67.8554855 81.6388572,64.973592 88.1683652,59.6848075 C85.3505858,59.2113991 82.8334549,57.9585406 80.8584506,55.9899905 C78.7954907,53.9337723 77.5257309,51.2861921 77.1019445,48.3277882 Z M63.5503768,34.9209266 L40.539578,57.8549327 C48.4284008,61.874919 62.4565283,57.1727145 74.7303402,46.1791199 C71.8613866,45.7232451 69.2946807,44.4656047 67.2892917,42.4667693 C65.2535181,40.4376485 63.9917542,37.8315115 63.5503768,34.9209266 L63.5503768,34.9209266 Z M50.0004082,21.5156589 C38.9643722,33.7509544 34.2467507,47.7364262 38.2783181,55.6010624 L38.2783181,55.6010624 L61.2859184,32.6702443 C58.3657907,32.2303093 55.7543073,30.9678869 53.7201329,28.9403601 C51.7115455,26.9399307 50.4577776,24.3784248 50.0004082,21.5156589 Z M6.38879573,50.3043081 C7.27155068,50.3043081 7.98798947,51.0168116 7.98798947,51.8982757 C7.98798947,52.7797398 7.27155068,53.4922433 6.38879573,53.4922433 L6.38879573,53.4922433 L1.62639678,53.4922433 C0.743641832,53.4922433 0.0272030368,52.7797398 0.0272030368,51.8982757 C0.0272030368,51.0168116 0.743641832,50.3043081 1.62639678,50.3043081 L1.62639678,50.3043081 Z M36.4520388,8.11676715 C31.1395172,14.6281249 28.2465758,22.6872251 28.2449766,31.1926363 C28.2449766,38.0785764 30.1736042,44.6552868 33.71262,50.3728487 C33.1768901,41.3812773 38.2383383,29.6959007 47.8382983,19.1613688 C44.8685955,18.7405613 42.2123347,17.4717631 40.1493748,15.4155449 C38.1727713,13.4438069 36.9269994,10.9269321 36.4520388,8.11676715 Z M14.4199467,43.9284376 C15.3027016,43.9284376 16.0191404,44.6409411 16.0191404,45.5224052 C16.0191404,46.4038693 15.3027016,47.1163728 14.4199467,47.1163728 L14.4199467,47.1163728 L1.62639678,47.1163728 C0.743641832,47.1163728 0.0272030368,46.4038693 0.0272030368,45.5224052 C0.0272030368,44.6409411 0.743641832,43.9284376 1.62639678,43.9284376 L1.62639678,43.9284376 Z M20.8167217,24.8008262 C21.6994766,24.8008262 22.4159154,25.5133297 22.4159154,26.3947938 C22.4159154,34.6260426 13.9529821,40.7755696 6.38879573,40.7755696 L6.38879573,40.7755696 L1.62639678,40.7755696 C0.743641832,40.7755696 0.0272030368,40.0630661 0.0272030368,39.181602 C0.0272030368,38.3001379 0.743641832,37.5876344 1.62639678,37.5876344 L1.62639678,37.5876344 L6.38879573,37.5876344 C12.3202053,37.5876344 19.2175279,32.6989357 19.2175279,26.3947938 C19.2175279,25.5133297 19.9339667,24.8008262 20.8167217,24.8008262 Z M6.13772232,15.5637839 C7.17559905,15.2577421 8.24066208,15.163698 9.3089235,15.2896214 C13.209357,15.7343384 16.1518735,19.1533989 16.1518735,23.2419259 L16.1518735,23.2419259 L16.1518735,24.9681928 C16.1518735,30.2378497 11.8788278,34.3646319 6.423978,34.3646319 L6.423978,34.3646319 L1.62639678,34.3646319 C0.743641832,34.3646319 0.0272030368,33.6521284 0.0272030368,32.7706643 C0.0272030368,31.8892002 0.743641832,31.1766967 1.62639678,31.1766967 L1.62639678,31.1766967 L6.423978,31.1766967 C10.146901,31.1766967 12.953486,28.5083949 12.953486,24.9681928 L12.953486,24.9681928 L12.953486,23.2419259 C12.953486,20.8143132 11.1927737,18.7118699 8.94430733,18.4552411 C8.30143145,18.3835126 7.66335314,18.4377075 7.03966759,18.6210137 C4.49215196,19.3669906 3.03048888,22.0416683 3.77891155,24.5808587 C4.02838577,25.4256615 3.54383007,26.3119075 2.69625739,26.5589725 C1.84868471,26.8156013 0.959532987,26.3246592 0.710058764,25.4798564 C-0.537312353,21.2542482 1.89825971,16.8054846 6.13772232,15.5637839 Z" id="path-1"></path>
    </defs>
    <g id="MVP---WISP-Light" stroke="none" stroke-width="1" fill="none" fill-rule="evenodd">
        <g id="GENERIC_ERROR(1)" transform="translate(-591.000000, -221.000000)">
            <g id="ThankYou" transform="translate(452.000000, 216.000000)">
                <g id="pictograms/umbrella" transform="translate(139.000000, 5.000000)">
                    <g id="colors/@aqua" transform="translate(0.972797, 0.298855)">
                        <mask id="mask-2" fill="white">
                            <use xlink:href="#path-1"></use>
                        </mask>
                        <g id="Mask"></g>
                        <g mask="url(#mask-2)" fill="#00C5CA" id="Rectangle-Copy-9">
                            <g transform="translate(-6.400000, -15.200000)">
                                <rect x="0" y="0" width="114.4" height="116"></rect>
                            </g>
                        </g>
                    </g>
                </g>
            </g>
        </g>
    </g>
</svg>