<?xml version="1.0" encoding="UTF-8"?>
<svg width="80" height="80" viewBox="0 0 80 80" fill="none" xmlns="http://www.w3.org/2000/svg">
<mask id="mask0_1125_26203" style="mask-type:alpha" maskUnits="userSpaceOnUse" x="10" y="0" width="60" height="80">
<path fill-rule="evenodd" clip-rule="evenodd" d="M10.1101 20.9084C10.1162 20.8863 10.1223 20.8644 10.1311 20.8426C10.1918 20.701 10.2755 20.5706 10.3788 20.4555L28.9502 0.455497C28.9558 0.448521 28.9711 0.438756 28.9711 0.438756C29.0004 0.412946 29.0304 0.38923 29.0611 0.366909C29.1581 0.279715 29.2669 0.206473 29.3841 0.149972C29.4308 0.129046 29.4782 0.11091 29.5271 0.0955636C29.6526 0.0502232 29.7838 0.0237164 29.917 0.0174386C29.9305 0.0167789 29.9431 0.0128436 29.9558 0.00887811C29.9699 0.00445779 29.9842 0 30 0H68.5714C69.3604 0 70 0.639648 70 1.42857V78.5714C70 79.3604 69.3604 80 68.5714 80H11.4286C10.6396 80 10 79.3604 10 78.5714V21.4286C10 21.4141 10.0041 21.4007 10.0082 21.3875L10.0082 21.3874C10.0121 21.3745 10.016 21.3618 10.016 21.3484C10.0237 21.2151 10.0509 21.0833 10.0956 20.957C10.1012 20.9408 10.1057 20.9246 10.1101 20.9084L10.1101 20.9084ZM28.5714 20V5.06696L14.7042 20H28.5714ZM12.8571 22.8571H30C30.7889 22.8571 31.4286 22.2175 31.4286 21.4286V2.85714H67.1429V77.1429H12.8571V22.8571ZM34.0555 36.446C33.9865 36.5674 33.8986 36.6776 33.796 36.7732C33.7872 36.781 33.781 36.7905 33.7748 36.8C33.7678 36.8108 33.7608 36.8215 33.75 36.8297L26.6071 42.5439C25.9912 43.0371 25.0914 42.9374 24.5989 42.3214C24.1057 41.7055 24.2055 40.8057 24.8214 40.3132L28.7842 37.1429H24.2857C23.4968 37.1429 22.8571 36.5032 22.8571 35.7143C22.8571 34.9254 23.4968 34.2857 24.2857 34.2857H28.7842L24.8214 31.114C24.2055 30.6215 24.1057 29.7217 24.5989 29.1057C25.0914 28.4898 25.9912 28.3901 26.6071 28.8825L33.75 34.5968C33.7606 34.6053 33.7676 34.616 33.7746 34.6267C33.7808 34.6364 33.7871 34.6461 33.796 34.654C33.8986 34.7503 33.9865 34.8605 34.0555 34.9826C34.0911 35.0279 34.1232 35.076 34.1511 35.1256C34.3304 35.4973 34.3304 35.9312 34.1511 36.303C34.1225 36.3525 34.0904 36.4 34.0555 36.446ZM55.7143 34.2857H51.2158L55.1786 31.1154C55.7945 30.6229 55.8943 29.7231 55.4011 29.1071C54.9086 28.4912 54.0088 28.3915 53.3929 28.8846L46.25 34.5989C46.2392 34.6071 46.2322 34.6178 46.2252 34.6286C46.219 34.6381 46.2128 34.6476 46.204 34.6554C46.1014 34.751 46.0135 34.8612 45.9445 34.9826C45.9096 35.0286 45.8775 35.076 45.8489 35.1256C45.6696 35.4973 45.6696 35.9312 45.8489 36.303C45.8775 36.3525 45.9096 36.4 45.9445 36.446C46.0135 36.5674 46.1014 36.6776 46.204 36.7732C46.2084 36.7771 46.2122 36.7815 46.2156 36.786C46.219 36.7906 46.2221 36.7953 46.2252 36.8C46.2322 36.8108 46.2392 36.8215 46.25 36.8297L53.3929 42.5439C54.0088 43.0371 54.9086 42.9374 55.4011 42.3214C55.8943 41.7055 55.7945 40.8057 55.1786 40.3132L51.2158 37.1429H55.7143C56.5032 37.1429 57.1429 36.5032 57.1429 35.7143C57.1429 34.9254 56.5032 34.2857 55.7143 34.2857ZM28.0783 55.1786C30.0321 50.3118 34.7559 47.1275 40 47.1429C45.2441 47.1275 49.9679 50.3118 51.9217 55.1786C52.117 55.6522 52.0431 56.1949 51.7292 56.5995C51.4146 57.0047 50.9068 57.2098 50.3997 57.1373C49.8919 57.0654 49.4622 56.7264 49.2732 56.25C47.7462 52.4693 44.0771 49.9937 40 49.9937C35.9229 49.9937 32.2538 52.4693 30.7268 56.25C30.4276 56.9761 29.5989 57.3242 28.8707 57.0299C28.1431 56.7355 27.7888 55.9082 28.0783 55.1786Z" fill="white"/>
</mask>
<g mask="url(#mask0_1125_26203)">
<rect x="-2.65234" y="-9.515" width="90.6667" height="93.3333" fill="#00C5CA"/>
</g>
</svg>
