<?xml version="1.0" encoding="UTF-8"?>
<svg width="84px" height="98px" viewBox="0 0 84 98" version="1.1" xmlns="http://www.w3.org/2000/svg" xmlns:xlink="http://www.w3.org/1999/xlink">
    <title>092771D6-6272-4FD3-BBA8-B169327838FC</title>
    <defs>
        <path d="M46.3887046,13.7668721 C49.0510959,13.7668721 51.2171255,15.9369211 51.2171255,18.6042529 C51.2171255,21.2109636 49.148433,23.3427383 46.5694425,23.4382907 L46.3887046,23.4416338 L42.965998,23.4416338 L42.965998,26.2952048 C49.507295,26.5901031 55.7238931,28.6789812 61.0473627,32.3282581 L61.4657707,32.6195965 L64.2145907,29.8656756 L58.5307346,24.1712721 C57.9022352,23.5416063 57.9022352,22.5205965 58.5307346,21.8909307 C60.8942466,19.5230328 64.0365829,18.2188749 67.3791378,18.2188749 C70.6138682,18.2188749 73.6612399,19.4400997 75.9965625,21.6649474 L76.2277019,21.8907695 L78.8947606,24.5627774 C83.773719,29.4509508 83.773719,37.4044111 78.8949216,42.2927458 C78.5931453,42.5950821 78.1836952,42.7650354 77.7568628,42.7650354 C77.3773131,42.7650354 77.0116248,42.6307513 76.7230994,42.3885699 L76.618643,42.2927458 L71.023308,36.6870276 L68.5064131,39.208593 C73.5703,45.4341409 76.3239484,53.1496021 76.3239484,61.2897854 C76.3239484,69.304358 73.6536707,76.9066245 68.7381773,83.0812187 L75.0263622,93.4981458 C75.3971899,94.1178902 75.4775262,94.2797339 75.4775262,94.701575 C75.4775262,95.1304894 75.306922,95.541828 75.0035362,95.8444868 C74.5758398,96.2709571 74.2702904,96.3164942 73.3436507,96.3235499 L71.4174982,96.3247783 L68.2833401,96.313874 C67.8603704,96.3119874 67.4572166,96.143574 67.1590606,95.8482476 L67.0636809,95.7451593 L61.8955002,89.6481244 C55.9621756,93.980644 48.8394501,96.3216138 41.3566853,96.3216138 C34.0365893,96.3216138 27.0608948,94.081319 21.2063435,89.9278529 L20.8177095,89.6481244 L15.6495288,95.7451593 C15.3757573,96.0681996 14.9873929,96.2687284 14.5699696,96.3071318 L14.4038928,96.313987 L10.9496042,96.3247783 L9.36951835,96.3235547 C8.44279047,96.3165245 8.13736989,96.2711014 7.70967345,95.8444868 C7.40628767,95.541828 7.23568347,95.1304894 7.23568347,94.701575 C7.23568347,94.3399969 7.29470609,94.1694373 7.54509383,93.7378088 L13.9750324,83.0812187 C9.05969993,76.9066245 6.38926129,69.304358 6.38926129,61.2897854 C6.38926129,53.3090555 9.03613689,45.7365551 13.9119013,39.5760379 L14.2071185,39.2081092 L11.6905455,36.6868663 L6.09521046,42.2925845 C5.79343415,42.5949208 5.38398406,42.7648741 4.95715165,42.7648741 C4.53031925,42.7648741 4.12086916,42.5949208 3.81909285,42.2925845 C1.45574178,39.9245253 0.153999508,36.7761966 0.153999508,33.4276003 C0.153999508,30.1870233 1.37311298,27.1340017 3.59384946,24.7944918 L3.8192538,24.5629387 L6.4861516,21.8909307 C8.84982457,19.5228716 11.9921609,18.2188749 15.3347157,18.2188749 C18.6772705,18.2188749 21.8196068,19.5230328 24.1831189,21.8909307 C24.7785394,22.4874562 24.8098773,23.4352157 24.2771326,24.0687131 L24.1831189,24.1712721 L18.4992628,29.8656756 L21.2477609,32.619274 C26.5236732,28.8883469 32.7078256,26.7113654 39.2314905,26.322209 L39.7472117,26.2952048 L39.7472117,23.4416338 L36.3245051,23.4416338 C33.6621138,23.4416338 31.4960842,21.2715847 31.4960842,18.6042529 C31.4960842,15.9975423 33.5647767,13.8657675 36.1437672,13.7702151 L36.3245051,13.7668721 L46.3887046,13.7668721 Z M16.2028658,85.6214886 L11.6868437,93.0983057 L13.6755093,93.0921784 L18.3049993,87.6306141 C17.7334752,87.1270428 17.1741831,86.6050894 16.6311467,86.0610453 C16.4862941,85.9160851 16.3448214,85.768545 16.2028658,85.6214886 Z M66.5105049,85.6214886 C66.3685493,85.768545 66.2270765,85.9159239 66.0822239,86.0610453 C65.6748259,86.4690784 65.2584651,86.8646854 64.8345675,87.249431 L64.4082104,87.6306141 L69.0377003,93.0921784 L71.026366,93.0983057 L66.5105049,85.6214886 Z M41.3566853,29.4823938 C23.8507626,29.4823938 9.60853044,43.7510548 9.60853044,61.2896241 C9.60853044,78.8280322 23.8506016,93.0966933 41.3566853,93.0966933 C58.8626081,93.0966933 73.1048402,78.8281934 73.1048402,61.2896241 C73.1048402,43.7510548 58.8626081,29.4823938 41.3566853,29.4823938 Z M41.3566853,33.3571358 C56.7302165,33.3571358 69.237597,45.8875647 69.237597,61.2896241 C69.237597,76.6916835 56.7303774,89.2221124 41.3568463,89.2221124 C35.0287179,89.2221124 28.8320834,87.0398087 23.9082208,83.0770263 C19.0590377,79.1745499 15.6136375,73.7020209 14.2064747,67.6675496 C14.0043248,66.8003684 14.5420499,65.933026 15.4076249,65.730501 C16.2731998,65.5278148 17.1387747,66.066699 17.3410855,66.9338801 C19.9584115,78.1580549 29.8339808,85.9971919 41.3568463,85.9971919 C54.9554499,85.9971919 66.0186497,74.9134623 66.0186497,61.2896241 C66.0186497,47.6657859 54.9554499,36.5820564 41.3568463,36.5820564 C29.9418155,36.5820564 20.0874913,44.3313793 17.3930715,55.427041 C17.1827133,56.2924485 16.312149,56.8227866 15.4486664,56.6126831 C14.5848619,56.4020958 14.0551842,55.529916 14.2652205,54.6646698 C15.7163219,48.6890532 19.1749198,43.2769915 24.0039845,39.4253076 C28.9811207,35.4554304 34.9817212,33.3571358 41.3566853,33.3571358 Z M32.0642219,49.7077851 L32.1665909,49.8019733 L38.7142515,56.3617843 C39.5014451,55.9364172 40.4013018,55.6945482 41.3566853,55.6945482 C44.4360912,55.6945482 46.9413979,58.2045039 46.9413979,61.2896241 C46.9413979,63.7421209 45.3578787,65.8303381 43.1615209,66.5838631 L42.9661589,66.6468622 L42.9661589,81.8663911 C42.9661589,82.7569529 42.2455976,83.4788514 41.3566853,83.4788514 C40.5081781,83.4788514 39.8130651,82.8210885 39.7514861,81.986734 L39.7470507,81.8663911 L39.7470507,66.6468622 C37.45001,65.9528593 35.7718118,63.8142532 35.7718118,61.2896241 C35.7718118,60.4194819 35.9714664,59.5953148 36.3267598,58.8601299 L36.437973,58.6422868 L29.8903124,52.0824759 C29.2618129,51.4526489 29.2618129,50.4316391 29.8903124,49.8019733 C30.4858854,49.2054479 31.4318974,49.1740518 32.0642219,49.7077851 Z M59.4985111,65.6880933 C59.9218027,65.6880933 60.3370469,65.8606266 60.636409,66.1605442 C60.935771,66.4604618 61.1079847,66.8764765 61.1079847,67.3005536 C61.1079847,67.7246306 60.935771,68.1406454 60.636409,68.440563 C60.3370469,68.7404806 59.9218027,68.9130139 59.4985111,68.9130139 C59.0752195,68.9130139 58.6599753,68.7404806 58.3606132,68.440563 C58.0612511,68.1406454 57.8890375,67.7246306 57.8890375,67.3005536 C57.8890375,66.8764765 58.0612511,66.4604618 58.3606132,66.1605442 C58.6599753,65.8606266 59.0752195,65.6880933 59.4985111,65.6880933 Z M41.3565244,58.9194688 C40.052046,58.9194688 38.9907591,59.9827251 38.9907591,61.2896241 C38.9907591,62.5965232 40.052046,63.6597795 41.3565244,63.6597795 C42.6610027,63.6597795 43.7222897,62.5965232 43.7222897,61.2896241 C43.7222897,59.9827251 42.6610027,58.9194688 41.3565244,58.9194688 Z M57.5957914,50.0219129 C59.8937978,53.3405174 61.1084676,57.2367052 61.1084676,61.2897854 C61.1084676,62.1803472 60.3879062,62.9022457 59.4989939,62.9022457 C58.6100817,62.9022457 57.8895203,62.1803472 57.8895203,61.2897854 C57.8895203,57.8970077 56.8732987,54.6364517 54.9509434,51.8602789 C54.4442811,51.1285444 54.6255078,50.1238204 55.3558869,49.6162179 C56.0862661,49.1086154 57.0891291,49.2901784 57.5957914,50.0219129 Z M15.0850863,59.6768414 C15.5083779,59.6768414 15.9236221,59.8493746 16.2229842,60.1492922 C16.5223463,60.4492098 16.69456,60.8652246 16.69456,61.2893016 C16.69456,61.7133787 16.5223463,62.1293935 16.2229842,62.4293111 C15.9237831,62.7292287 15.5083779,62.9017619 15.0850863,62.9017619 C14.6617948,62.9017619 14.2465506,62.7292287 13.9471885,62.4293111 C13.6478264,62.1293935 13.4756127,61.7133787 13.4756127,61.2893016 C13.4756127,60.8652246 13.6478264,60.4492098 13.9471885,60.1492922 C14.2465506,59.8493746 14.6617948,59.6768414 15.0850863,59.6768414 Z M15.3347157,21.4481491 C13.0460133,21.4481491 10.7574596,22.2873262 8.97398981,23.9656803 L8.76243015,24.1711108 L6.0953714,26.8431188 C4.33975757,28.6019904 3.37294676,30.9403804 3.37294676,33.4276003 C3.37294676,35.2608423 3.89823673,37.0132532 4.87736313,38.5123199 L5.0548467,38.7741962 L20.6702817,23.129784 C19.0756153,22.0086403 17.205246,21.4481491 15.3347157,21.4481491 Z M67.3792987,21.4436342 C65.5494524,21.4436342 63.8002874,21.969899 62.3039972,22.9508423 L62.0426061,23.1286552 L77.6580411,38.7732287 C80.1531868,35.2109571 79.8666982,30.2754658 76.7987273,27.0285459 L76.618643,26.8431188 L73.9515843,24.1711108 C72.1961314,22.4122391 69.8619118,21.4436342 67.3792987,21.4436342 Z M66.4910302,32.1460169 L64.0259604,34.6156611 C64.7318755,35.21985 65.418477,35.8532244 66.0822239,36.518203 L66.357283,36.8005448 L68.7470294,34.4063637 L66.4910302,32.1460169 Z M16.2231452,32.1460169 L13.966985,34.4063637 L16.3564096,36.8002223 L16.6311467,36.518203 C17.1289569,36.0193481 17.6398038,35.5383612 18.16199,35.0740861 L18.6878931,34.6153386 L16.2231452,32.1460169 Z M46.3887046,16.9917926 L36.3245051,16.9917926 C35.4370413,16.9917926 34.7150314,17.7151423 34.7150314,18.6042529 C34.7150314,19.4529494 35.3728958,20.1506117 36.2045651,20.212282 L36.3245051,20.2167132 L46.3887046,20.2167132 C47.2761684,20.2167132 47.9981782,19.4933635 47.9981782,18.6042529 C47.9981782,17.7555564 47.3403139,17.0578942 46.5086446,16.9962238 L46.3887046,16.9917926 Z M62.1679812,8.39807701 C63.0375956,8.39807701 63.5159047,9.41297932 62.9643565,10.0878697 L59.3670507,14.4896378 L62.1679812,14.4896378 C62.7368693,14.4896378 63.1980443,14.952571 63.1980443,15.5236279 C63.1980443,16.0946849 62.7368693,16.5576181 62.1679812,16.5576181 L57.1897073,16.5576181 C56.3200929,16.5576181 55.8417838,15.5427158 56.393332,14.8678254 L59.9906378,10.4660573 L57.1897073,10.4660573 C56.6208192,10.4660573 56.1596442,10.0031242 56.1596442,9.43206717 C56.1596442,8.86101017 56.6208192,8.39807701 57.1897073,8.39807701 L62.1679812,8.39807701 Z M69.9215965,4.22234752 C70.791211,4.22234752 71.26952,5.23724983 70.7179718,5.91214026 L67.1206661,10.3139083 L69.9215965,10.3139083 C70.4904847,10.3139083 70.9516596,10.7768415 70.9516596,11.3478985 C70.9516596,11.9189555 70.4904847,12.3818886 69.9215965,12.3818886 L64.9433227,12.3818886 C64.0737082,12.3818886 63.5953992,11.3669863 64.1469474,10.6920959 L67.7442531,6.29032784 L64.9433227,6.29032784 C64.3744345,6.29032784 63.9132596,5.82739468 63.9132596,5.25633768 C63.9132596,4.68528068 64.3744345,4.22234752 64.9433227,4.22234752 L69.9215965,4.22234752 Z M77.7166688,0.325 C78.5862832,0.325 79.0645923,1.33990231 78.5130441,2.01479273 L74.9157383,6.41656078 L77.7166688,6.41656078 C78.2855569,6.41656078 78.7467319,6.87949394 78.7467319,7.45055094 C78.7467319,8.02160793 78.2855569,8.4845411 77.7166688,8.4845411 L72.738395,8.4845411 C71.8687805,8.4845411 71.3904714,7.46963879 71.9420196,6.79474836 L75.5393254,2.39298032 L72.738395,2.39298032 C72.1695068,2.39298032 71.7083318,1.93004716 71.7083318,1.35899016 C71.7083318,0.787933163 72.1695068,0.325 72.738395,0.325 L77.7166688,0.325 Z" id="path-1"></path>
    </defs>
    <g id="MVP---WISP-Light" stroke="none" stroke-width="1" fill="none" fill-rule="evenodd">
        <g id="03.-Thankyou-page---Timeout" transform="translate(-598.000000, -215.000000)">
            <g id="ThankYou" transform="translate(452.000000, 215.000000)">
                <g id="pictograms/paymentcompleted" transform="translate(146.000000, 0.000000)">
                    <g id="colors/@aqua" transform="translate(0.246000, 0.675000)">
                        <mask id="mask-2" fill="white">
                            <use xlink:href="#path-1"></use>
                        </mask>
                        <g id="Mask"></g>
                        <g mask="url(#mask-2)" fill="#00C5CA" id="Rectangle-Copy-9">
                            <g transform="translate(-16.800000, -4.800000)">
                                <rect x="0" y="0" width="120" height="107.2"></rect>
                            </g>
                        </g>
                    </g>
                </g>
            </g>
        </g>
    </g>
</svg>