<?xml version="1.0" encoding="UTF-8"?>
<svg width="94px" height="98px" viewBox="0 0 94 98" version="1.1" xmlns="http://www.w3.org/2000/svg" xmlns:xlink="http://www.w3.org/1999/xlink">
    <title>D0D394C2-1840-47DA-B9D1-D96F41B1A36F</title>
    <defs>
        <path d="M86.1408661,0.369597418 C89.5280536,0.369597418 92.2835536,3.12415992 92.2835536,6.51022242 L92.2835536,6.51022242 L92.2835536,31.1889724 C92.2835536,34.5750349 89.5289911,37.3295974 86.1429286,37.3295974 L86.1429286,37.3295974 L76.2316786,37.3295974 C75.9691786,37.3295974 75.7258036,37.4488474 75.5641786,37.6567849 L75.5641786,37.6567849 L70.9113661,43.6517224 C70.4662411,44.2267849 69.8096161,44.5414099 69.1203661,44.5414099 C68.8702411,44.5414099 68.6158036,44.4999724 68.3656786,44.4144724 C67.4261161,44.0932849 66.8191786,43.2442849 66.8191786,42.2514724 L66.8191786,42.2514724 L66.8191786,38.2577224 C66.8191786,37.7458474 66.4027411,37.3295974 65.8910536,37.3295974 L65.8910536,37.3295974 L61.4624911,37.3295974 C60.9320536,37.3295974 60.4063036,37.2598474 59.8985536,37.1259724 L59.8985536,37.1259724 L59.8985536,40.7441599 C61.1272411,41.7757849 61.9104286,43.3224724 61.9104286,45.0489724 L61.9104286,45.0489724 L61.9104286,46.3689724 C61.9104286,49.4664724 59.3904286,51.9864724 56.2929286,51.9864724 L56.2929286,51.9864724 L53.6459911,51.9864724 C51.1801786,58.1006599 46.4105536,61.8324724 43.0841161,63.8044099 C43.2416161,64.2825349 43.3224286,64.7882224 43.3177411,65.3072224 C43.3029286,67.1938474 42.1291786,68.8190974 40.4662411,69.5329099 C40.4836786,70.6610974 41.1778036,71.6274724 42.1929286,72.0191599 L42.1929286,72.0191599 L42.290203,72.0546843 C42.8191598,72.2370989 43.3079269,72.2213599 46.7099911,72.7918474 C48.6268036,73.0914724 50.4236161,73.7741599 52.0498036,74.8211599 C52.7028661,75.2415349 52.8914911,76.1119099 52.4711161,76.7647849 C52.2024286,77.1823474 51.7496161,77.4099724 51.2874286,77.4099724 C51.0266161,77.4099724 50.7629911,77.3375974 50.5274911,77.1859099 C49.2329911,76.3526599 47.8025536,75.8090974 46.2751786,75.5704099 C42.4880196,74.9743304 42.3157365,74.9548521 42.1094752,74.9134119 L42.0778251,74.9069563 C42.066886,74.9046997 42.0554059,74.9023133 42.0429286,74.8997224 L42.0429286,74.8997224 C39.2823661,77.5532224 35.5186786,79.0597849 31.5748036,79.0597849 C30.6446161,79.0597849 29.7194911,78.9755974 28.8164911,78.8117224 C27.7719286,79.3631599 26.5833661,79.6770349 25.3224286,79.6770349 L25.3224286,79.6770349 L19.1092411,79.6770349 C19.0623661,79.6770349 19.0214911,79.7087224 19.0096786,79.7540974 L19.0096786,79.7540974 L15.4214911,93.5570974 L46.2123661,93.5570974 L46.2123661,87.8115349 C46.2123661,87.0349099 46.8418036,86.4052849 47.6186161,86.4052849 C48.3954286,86.4052849 49.0248661,87.0349099 49.0248661,87.8115349 L49.0248661,87.8115349 L49.0248661,93.5574724 L55.5110536,93.5574724 C55.7294911,93.5574724 55.8695536,93.4423474 55.9333036,93.3737224 C55.9970536,93.3050974 56.1022411,93.1569724 56.0864911,92.9383474 L56.0864911,92.9383474 L55.5539911,85.6498474 C55.4474911,84.1794724 55.0580536,82.7745349 54.3961786,81.4729099 C54.0442411,80.7806599 54.3200536,79.9339099 55.0123036,79.5819724 C55.7041786,79.2298474 56.5509286,79.5058474 56.9032411,80.1980974 C57.7357411,81.8353474 58.2254911,83.6008474 58.3591786,85.4456599 L58.3591786,85.4456599 L58.8916786,92.7349099 C58.9589911,93.6724099 58.6308661,94.6029724 57.9918661,95.2895974 C57.3530536,95.9760349 56.4489286,96.3697849 55.5110536,96.3697849 L55.5110536,96.3697849 L3.19892864,96.3697849 C2.33980364,96.3697849 1.54536614,95.9797849 1.01980364,95.3000974 C0.494053642,94.6204099 0.316678642,93.7534099 0.532866142,92.9218474 L0.532866142,92.9218474 L7.01905364,67.9693474 C7.06292864,67.8009724 7.13774114,67.6417849 7.23955364,67.5005974 C7.55380364,67.0650349 12.6751786,59.9728474 13.6719286,58.5924724 C11.8610536,56.5747849 10.4647411,54.3602224 9.50511614,51.9866599 L9.50511614,51.9866599 L5.73542864,51.9866599 C2.63680364,51.9866599 0.116053642,49.4666599 0.116053642,46.3691599 L0.116053642,46.3691599 L0.116053642,45.0491599 C0.116053642,43.4347849 0.801178642,41.9784724 1.89486614,40.9524724 L1.89486614,40.9524724 L1.53974114,28.6815349 C1.38261614,23.2054099 4.83730364,18.3894724 10.0076161,16.7683474 C13.8174286,10.5004099 20.6643661,6.63022242 28.0160536,6.63022242 L28.0160536,6.63022242 L34.3029286,6.63022242 C42.9986161,6.63022242 50.6939911,10.9901599 55.3216786,17.6375974 L55.3216786,17.6375974 L55.3216786,6.51022242 C55.3216786,3.12415992 58.0762411,0.369597418 61.4623036,0.369597418 L61.4623036,0.369597418 Z M23.0699911,53.6077849 C22.6584286,53.3090974 22.1561161,53.1881599 21.6583036,53.2682224 C21.1663036,53.3471599 20.7344911,53.6135974 20.4425536,54.0182224 C19.9392099,54.7162263 17.9102028,57.5265657 15.745301,60.5248899 L15.27982,61.169564 C12.6360472,64.8310739 9.93827044,68.5670916 9.67480364,68.9321599 L9.67480364,68.9321599 L3.27392864,93.5570974 L12.5154286,93.5570974 L16.2877411,79.0464724 C16.6216786,77.7617224 17.7819286,76.8645349 19.1092411,76.8645349 L19.1092411,76.8645349 L25.3224286,76.8645349 C27.9125536,76.8645349 30.0196786,74.7572224 30.0196786,72.1672849 L30.0196786,72.1672849 L30.0196786,69.6017224 C30.0196786,68.2264099 31.1384911,67.1075974 32.5138036,67.1075974 L32.5138036,67.1075974 L38.5807411,67.1075974 C39.6339286,67.1075974 40.4973661,66.2893474 40.5053188,65.2834099 C40.5097411,64.7840974 40.3184911,64.3164724 39.9671161,63.9649099 C39.6187411,63.6167224 39.1559911,63.4249099 38.6638036,63.4249099 L38.6638036,63.4249099 L22.7851786,63.4249099 C21.9341161,63.4249099 21.1618036,62.9559724 20.7695536,62.2012849 C20.3776786,61.4469724 20.4374911,60.5462224 20.9259286,59.8505974 L20.9259286,59.8505974 L23.5471786,56.1054724 C23.7678661,55.7914099 23.8769911,55.4254099 23.8642411,55.0449724 C23.8496161,54.4834099 23.5854286,53.9820349 23.1386161,53.6578474 L23.1386161,53.6578474 Z M37.6691161,69.9202849 L32.8321786,69.9202849 L32.8321786,72.1674724 C32.8321786,73.6704724 32.3866786,75.0705349 31.6231786,76.2459724 C34.4906161,76.2349099 37.2307411,75.2514724 39.3688036,73.5052849 C38.4001786,72.5874724 37.7758036,71.3250349 37.6691161,69.9202849 L37.6691161,69.9202849 Z M34.3029286,9.44272242 L28.0160536,9.44272242 C21.4783036,9.44272242 15.4010536,12.9752224 12.1561786,18.6620974 C11.9686786,18.9905974 11.6566786,19.2296599 11.2908661,19.3254724 C7.07961614,20.4277849 4.22586614,24.2419099 4.35111614,28.6009099 L4.35111614,28.6009099 L4.66742864,39.5330974 C5.01355364,39.4661599 5.37017864,39.4299724 5.73542864,39.4299724 L5.73542864,39.4299724 L8.21849114,39.4299724 C8.38874114,37.8045349 8.65067864,36.2297224 9.00336614,34.7360974 C9.18186614,33.9800974 9.93936614,33.5120974 10.6951786,33.6905974 C11.4511786,33.8690974 11.9191786,34.6265974 11.7406786,35.3824099 C11.3287411,37.1269099 11.0480536,38.9962849 10.9064911,40.9384099 C10.6595536,44.2457224 10.7199286,47.0233474 11.8025536,50.1159724 C12.5707411,52.3130974 13.7654911,54.3709099 15.3614911,56.2526599 C16.5950536,54.5439724 17.6323036,53.1071599 18.1614286,52.3732849 C18.8939911,51.3579724 19.9775536,50.6897224 21.2129911,50.4915349 C22.4544286,50.2927849 23.7011161,50.5912849 24.7233661,51.3328474 L24.7233661,51.3328474 L24.7918036,51.3827224 C25.9513036,52.2240349 26.6384911,53.5290349 26.6752411,54.9619099 C26.7084286,55.9468474 26.4230536,56.9045974 25.8496786,57.7205974 L25.8496786,57.7205974 L23.8256161,60.6125974 L38.6638036,60.6125974 C39.6706786,60.6125974 40.6288036,60.9304099 41.4239911,61.5184099 C44.5456786,59.7107224 49.2476161,56.1227224 51.3485536,50.1161599 C52.0190536,48.2002849 52.3589911,46.1764099 52.3589911,44.1004099 C52.3589911,43.0179724 52.3205536,41.9548474 52.2448036,40.9406599 C52.1066161,39.0386599 51.8360536,37.2105349 51.4409911,35.5037224 C51.0652411,33.8869099 49.6321786,32.6912224 47.9563036,32.5969099 C42.1541161,32.2714099 36.2399911,30.7689724 30.8538661,28.2517849 C30.6845536,28.1728474 30.4768036,28.2109099 30.3918661,28.3370974 C29.5387411,29.6042224 27.9871786,30.4080349 26.4221161,30.3920974 C24.2124286,30.3665974 22.3927411,29.0209099 21.2163661,28.0110349 C20.2149286,27.1498474 19.2161161,26.1529099 18.1619911,24.9626599 C17.9375536,24.7085974 17.6638036,24.6731599 17.5186786,24.6709099 C17.3773036,24.6709099 17.1089911,24.7076599 16.8918661,24.9523474 C15.7025536,26.2942849 14.6673661,27.8419099 13.8151786,29.5515349 C13.4684911,30.2465974 12.6243661,30.5291599 11.9291161,30.1826599 C11.2340536,29.8359724 10.9514911,28.9916599 11.2979911,28.2965974 C12.2600536,26.3664724 13.4339911,24.6133474 14.7871786,23.0863474 C15.4798036,22.3055974 16.4750536,21.8582224 17.5184911,21.8582224 L17.5184911,21.8582224 C18.5716786,21.8591599 19.5727411,22.3114099 20.2685536,23.0990974 C21.2362411,24.1918474 22.1461786,25.1010349 23.0491786,25.8776599 C24.3883036,27.0272224 25.4709286,27.5681599 26.4554911,27.5795974 C27.0594286,27.5932849 27.7366786,27.2449099 28.0589911,26.7660349 C28.9126786,25.4985349 30.6254911,25.0417849 32.0437411,25.7032849 C37.1090536,28.0706599 42.6658036,29.4832849 48.1141786,29.7887224 C51.0292411,29.9527849 53.5237411,32.0415349 54.1807411,34.8680974 C54.5169286,36.3204724 54.7681786,37.8500974 54.9329911,39.4295974 L54.9329911,39.4295974 L56.2929286,39.4295974 C56.5621786,39.4295974 56.8267411,39.4498474 57.0860536,39.4865974 L57.0860536,39.4865974 L57.0860536,32.2258474 C57.0860536,19.6631599 46.8656161,9.44272242 34.3029286,9.44272242 L34.3029286,9.44272242 Z M31.1343661,49.9824724 C33.8998036,48.3692224 36.8233036,48.3692224 39.5887411,49.9824724 C40.2596161,50.3737849 40.4863036,51.2347849 40.0949911,51.9056599 C39.8336161,52.3535974 39.3628036,52.6035349 38.8790536,52.6035349 C38.6383036,52.6037039 38.3945536,52.5418474 38.1718036,52.4119099 C36.2544286,51.2934724 34.4688661,51.2934724 32.5514911,52.4119099 C31.8808036,52.8032224 31.0194286,52.5767224 30.6281161,51.9056599 C30.2368036,51.2349724 30.4634911,50.3737849 31.1343661,49.9824724 Z M8.01730364,42.2420974 L5.73542864,42.2420974 C4.18761614,42.2420974 2.92855364,43.5013474 2.92855364,45.0489724 L2.92855364,45.0489724 L2.92855364,46.3689724 C2.92855364,47.9156599 4.18761614,49.1739724 5.73542864,49.1739724 L5.73542864,49.1739724 L8.59461614,49.1739724 C7.98392864,46.7008474 7.92055364,44.6872849 8.01730364,42.2420974 L8.01730364,42.2420974 Z M56.2929286,42.2420974 L55.1341786,42.2420974 C55.1581786,42.8525974 55.1714911,43.4732224 55.1714911,44.1002224 C55.1714911,45.8295349 54.9631786,47.5284724 54.5568661,49.1739724 L54.5568661,49.1739724 L56.2929286,49.1739724 C57.8396161,49.1739724 59.0979286,47.9156599 59.0979286,46.3689724 L59.0979286,46.3689724 L59.0979286,45.0489724 C59.0979286,43.5013474 57.8396161,42.2420974 56.2929286,42.2420974 L56.2929286,42.2420974 Z M24.4696786,41.1103474 C25.2463036,41.1103474 25.8759286,41.7399724 25.8759286,42.5165974 L25.8759286,42.5165974 L25.8759286,44.0867224 C25.8759286,44.8633474 25.2463036,45.4929724 24.4696786,45.4929724 C23.6930536,45.4929724 23.0634286,44.8633474 23.0634286,44.0867224 L23.0634286,44.0867224 L23.0634286,42.5165974 C23.0634286,41.7399724 23.6930536,41.1103474 24.4696786,41.1103474 Z M45.4841161,41.1103474 C46.2609286,41.1103474 46.8903661,41.7399724 46.8903661,42.5165974 L46.8903661,42.5165974 L46.8903661,44.0867224 C46.8903661,44.8633474 46.2609286,45.4929724 45.4841161,45.4929724 C44.7074911,45.4929724 44.0778661,44.8633474 44.0778661,44.0867224 L44.0778661,44.0867224 L44.0778661,42.5165974 C44.0778661,41.7399724 44.7074911,41.1103474 45.4841161,41.1103474 Z M86.1408661,3.18209742 L61.4623036,3.18209742 C59.6272411,3.18209742 58.1341786,4.67497242 58.1341786,6.51022242 L58.1341786,6.51022242 L58.1341786,22.8866599 C59.2724911,25.7814724 59.8983661,28.9318474 59.8983661,32.2258474 L59.8983661,32.2258474 L59.8983661,34.1263474 C60.3751786,34.3822849 60.9058036,34.5170974 61.4623036,34.5170974 L61.4623036,34.5170974 L65.8910536,34.5170974 C67.9537411,34.5170974 69.6316786,36.1952224 69.6316786,38.2577224 L69.6316786,38.2577224 L69.6316786,40.7135974 L73.3434286,35.9310349 C74.0428036,35.0319724 75.0950536,34.5170974 76.2316786,34.5170974 L76.2316786,34.5170974 L86.1429286,34.5170974 C87.9779911,34.5170974 89.4710536,33.0242224 89.4710536,31.1889724 L89.4710536,31.1889724 L89.4710536,6.51022242 C89.4710536,4.67497242 87.9770536,3.18209742 86.1408661,3.18209742 L86.1408661,3.18209742 Z M72.9099286,27.2353474 C73.6865536,27.2353474 74.3161786,27.8649724 74.3161786,28.6415974 L74.3161786,28.6415974 L74.3161786,29.0535349 C74.3161786,29.8301599 73.6867411,30.4597849 72.9099286,30.4597849 C72.1331161,30.4597849 71.5036786,29.8301599 71.5036786,29.0535349 L71.5036786,29.0535349 L71.5036786,28.6415974 C71.5036786,27.8649724 72.1331161,27.2353474 72.9099286,27.2353474 Z M73.8024286,7.23978492 C77.3979286,7.23978492 80.3233036,10.1649724 80.3233036,13.7606599 C80.3233036,17.1832849 77.6724286,19.9985974 74.3161786,20.2614724 L74.3161786,20.2614724 L74.3161786,23.6863474 C74.3161786,24.4629724 73.6867411,25.0925974 72.9099286,25.0925974 C72.1331161,25.0925974 71.5036786,24.4629724 71.5036786,23.6863474 L71.5036786,23.6863474 L71.5036786,18.8752849 C71.5036786,18.0986599 72.1331161,17.4690349 72.9099286,17.4690349 L72.9099286,17.4690349 L73.8024286,17.4690349 C75.8473036,17.4690349 77.5108036,15.8055349 77.5108036,13.7606599 C77.5108036,11.7157849 75.8473036,10.0522849 73.8024286,10.0522849 C71.7577411,10.0522849 70.0942411,11.7157849 70.0942411,13.7606599 C70.0942411,14.5372849 69.4648036,15.1669099 68.6879911,15.1669099 C67.9111786,15.1669099 67.2817411,14.5372849 67.2817411,13.7606599 C67.2817411,10.1649724 70.2067411,7.23978492 73.8024286,7.23978492 Z" id="path-1"></path>
    </defs>
    <g id="MVP---WISP-Light" stroke="none" stroke-width="1" fill="none" fill-rule="evenodd">
        <g id="INVALID_DATA(3)" transform="translate(-593.000000, -215.000000)">
            <g id="ThankYou" transform="translate(452.000000, 215.000000)">
                <g id="pictograms/question" transform="translate(141.000000, 0.000000)">
                    <g id="colors/@aqua" transform="translate(0.525196, 0.630403)">
                        <mask id="mask-2" fill="white">
                            <use xlink:href="#path-1"></use>
                        </mask>
                        <g id="Mask"></g>
                        <g mask="url(#mask-2)" fill="#00C5CA" id="Rectangle-Copy-9">
                            <g transform="translate(-5.600000, -2.400000)">
                                <rect x="0" y="0" width="105.6" height="104"></rect>
                            </g>
                        </g>
                    </g>
                </g>
            </g>
        </g>
    </g>
</svg>