<?xml version="1.0" encoding="UTF-8"?>
<svg width="96px" height="96px" viewBox="0 0 96 96" version="1.1" xmlns="http://www.w3.org/2000/svg" xmlns:xlink="http://www.w3.org/1999/xlink">
    <title>DE79B25D-78BA-4631-AA91-8B7DEFB5DB39</title>
    <g id="_Specs" stroke="none" stroke-width="1" fill="none" fill-rule="evenodd">
        <g id="Assets" transform="translate(-27.000000, -983.000000)" fill="#00C5CA" fill-rule="nonzero">
            <g id="pictograms/paymentcompleted" transform="translate(27.000000, 983.000000)">
                <path d="M48,6.4 C70.9376835,6.4 89.6,25.0623165 89.6,48 C89.6,70.9376835 70.9376835,89.6 48,89.6 C25.0623165,89.6 6.4,70.9376835 6.4,48 C6.4,25.0623165 25.0623165,6.4 48,6.4 Z M48,10.5566069 C27.3526917,10.5566069 10.5566069,27.3526917 10.5566069,48 C10.5566069,68.6473083 27.3526917,85.4433931 48,85.4433931 C68.6473083,85.4433931 85.4433931,68.6473083 85.4433931,48 C85.4433931,27.3526917 68.6473083,10.5566069 48,10.5566069 Z M58.8920065,37.8714519 C59.7063622,37.0570962 61.0127243,37.0570962 61.8270799,37.8714519 C62.6244698,38.6858075 62.6244698,39.9921697 61.8101142,40.8065253 L61.8101142,40.8065253 L44.3862969,58.1285481 C43.9791191,58.5357259 43.4531811,58.7393148 42.9272431,58.7393148 C42.3843393,58.7393148 41.8584013,58.5357259 41.4512235,58.1285481 L41.4512235,58.1285481 L34.1729201,50.7993475 C33.3755302,49.9849918 33.3755302,48.6616639 34.1898858,47.8642741 C35.0042414,47.0668842 36.3106036,47.0668842 37.1249592,47.8812398 L37.1249592,47.8812398 L42.9442088,53.7344209 Z"></path>
            </g>
        </g>
    </g>
</svg>