<svg width="24" height="25" viewBox="0 0 24 25" fill="none" xmlns="http://www.w3.org/2000/svg">
<g clip-path="url(#clip0_4026_3583)">
<path fill-rule="evenodd" clip-rule="evenodd" d="M0.999503 13.4945C0.447218 13.4943 -0.000274496 13.0463 1.26333e-07 12.494C0.00128597 9.908 0.837943 7.39157 2.38534 5.31958C3.93275 3.2476 6.10809 1.73092 8.58735 0.995489C11.0666 0.260051 13.7171 0.345203 16.1441 1.23826C17.791 1.84428 19.2751 2.80033 20.5 4.02945V2.99995C20.5 2.44767 20.9477 1.99995 21.5 1.99995C22.0523 1.99995 22.5 2.44767 22.5 2.99995V6.49995C22.5 6.76517 22.3946 7.01952 22.2071 7.20706C22.0196 7.39459 21.7652 7.49995 21.5 7.49995H18C17.4477 7.49995 17 7.05223 17 6.49995C17 5.94767 17.4477 5.49995 18 5.49995H19.1414C18.1096 4.44738 16.8519 3.62985 15.4534 3.11522C13.4309 2.371 11.2222 2.30004 9.15612 2.91291C7.09008 3.52577 5.27729 4.78966 3.98779 6.51632C2.69829 8.24297 2.00107 10.34 2 12.495C1.99973 13.0473 1.55179 13.4948 0.999503 13.4945ZM24 12.506C24.0003 11.9537 23.5528 11.5057 23.0005 11.5055C22.4482 11.5052 22.0003 11.9527 22 12.505C21.9989 14.66 21.3017 16.757 20.0122 18.4837C18.7227 20.2103 16.9099 21.4742 14.8439 22.0871C12.7778 22.7 10.5691 22.629 8.54662 21.8848C7.14808 21.3701 5.89037 20.5526 4.85861 19.5H6C6.55228 19.5 7 19.0523 7 18.5C7 17.9478 6.55228 17.5 6 17.5H2.5C2.23478 17.5 1.98043 17.6054 1.79289 17.7929C1.60535 17.9805 1.5 18.2348 1.5 18.5L1.5 22C1.5 22.5523 1.94771 23 2.5 23C3.05228 23 3.5 22.5523 3.5 22V20.9705C4.72489 22.1997 6.20904 23.1557 7.85595 23.7617C10.2829 24.6548 12.9334 24.7399 15.4126 24.0045C17.8919 23.2691 20.0672 21.7524 21.6147 19.6804C23.1621 17.6084 23.9987 15.092 24 12.506ZM12.8057 8.911C12.0575 8.68436 11.257 8.69728 10.5164 8.94796C9.77586 9.19863 9.13215 9.67452 8.67534 10.3091C8.5192 10.526 8.38756 10.7577 8.28181 11H11.7187C12.133 11 12.4687 11.3358 12.4687 11.75C12.4687 12.1642 12.133 12.5 11.7187 12.5H7.96875C7.96875 12.7532 7.99438 13.0044 8.04451 13.25H11.7187C12.133 13.25 12.4687 13.5858 12.4687 14C12.4687 14.4142 12.133 14.75 11.7187 14.75H8.71875C9.16703 15.3477 9.78423 15.7986 10.4917 16.0436C11.2305 16.2994 12.0308 16.3179 12.7807 16.0965C13.5305 15.8751 14.1924 15.4248 14.6738 14.8087C14.9288 14.4823 15.4001 14.4245 15.7265 14.6795C16.0529 14.9345 16.1108 15.4058 15.8558 15.7322C15.1819 16.5948 14.2552 17.2251 13.2054 17.5351C12.1556 17.8451 11.0352 17.8192 10.0009 17.461C8.96651 17.1028 8.06998 16.4303 7.43667 15.5375C7.25945 15.2877 7.10532 15.0241 6.97533 14.75H6.46875C6.05453 14.75 5.71875 14.4142 5.71875 14C5.71875 13.5858 6.05453 13.25 6.46875 13.25H6.52259C6.48689 13.0026 6.46875 12.752 6.46875 12.5C6.05453 12.5 5.71875 12.1642 5.71875 11.75C5.71875 11.3358 6.05453 11 6.46875 11H6.68759C6.8541 10.4415 7.11342 9.91132 7.45798 9.43269C8.09751 8.54433 8.99871 7.87809 10.0355 7.52714C11.0724 7.1762 12.1929 7.15811 13.2405 7.4754C14.2882 7.79269 15.2104 8.42949 15.8783 9.29674C16.131 9.62491 16.0698 10.0958 15.7417 10.3486C15.4135 10.6013 14.9426 10.5401 14.6898 10.212C14.2128 9.59249 13.554 9.13763 12.8057 8.911Z" fill="#0073E6"/>
</g>
<defs>
<clipPath id="clip0_4026_3583">
<rect width="24" height="24" fill="white" transform="translate(0 0.5)"/>
</clipPath>
</defs>
</svg>
