<svg width="24" height="24" viewBox="0 0 24 24" fill="none" xmlns="http://www.w3.org/2000/svg">
<g clip-path="url(#clip0_4026_3599)">
<path fill-rule="evenodd" clip-rule="evenodd" d="M12.316 0.0517291L18.581 2.14073C19.5771 2.47161 20.4436 3.10799 21.0574 3.95944C21.6711 4.81089 22.001 5.83412 22 6.88373V12.0007C22 19.5637 12.8 23.7407 12.406 23.9147C12.2782 23.9715 12.1399 24.0009 12 24.0009C11.8601 24.0009 11.7218 23.9715 11.594 23.9147C11.2 23.7407 2 19.5637 2 12.0007V6.88373C1.99904 5.83412 2.32887 4.81089 2.94265 3.95944C3.55642 3.10799 4.42291 2.47161 5.419 2.14073L11.684 0.0517291C11.8891 -0.016592 12.1109 -0.016592 12.316 0.0517291ZM12 21.8897C13.681 21.0337 20 17.4557 20 12.0007V6.88373C19.9999 6.25401 19.8017 5.64027 19.4334 5.12947C19.0651 4.61868 18.5455 4.23672 17.948 4.03773L12 2.05473L6.052 4.03773C5.45455 4.23672 4.93486 4.61868 4.56657 5.12947C4.19828 5.64027 4.00006 6.25401 4 6.88373V12.0007C4 17.4697 10.317 21.0367 12 21.8897ZM16.7071 10.7071C17.0976 10.3166 17.0976 9.68342 16.7071 9.29289C16.3166 8.90237 15.6834 8.90237 15.2929 9.29289L11 13.5858L8.70711 11.2929C8.31658 10.9024 7.68342 10.9024 7.29289 11.2929C6.90237 11.6834 6.90237 12.3166 7.29289 12.7071L9.58579 15C10.3668 15.7811 11.6332 15.781 12.4142 15L16.7071 10.7071Z" fill="#0073E6"/>
</g>
<defs>
<clipPath id="clip0_4026_3599">
<rect width="24" height="24" fill="white"/>
</clipPath>
</defs>
</svg>
