<svg width="24" height="25" viewBox="0 0 24 25" fill="none" xmlns="http://www.w3.org/2000/svg">
<g clip-path="url(#clip0_4026_3591)">
<path fill-rule="evenodd" clip-rule="evenodd" d="M12.8287 1.91417C11.891 0.976492 10.6193 0.449707 9.29318 0.449707H5.05054C2.28911 0.449707 0.0505371 2.68828 0.0505371 5.44971V9.69235C0.0505371 11.0184 0.57732 12.2902 1.515 13.2279L11.1216 22.8345C13.0742 24.7871 16.2401 24.7871 18.1927 22.8345L22.4353 18.5918C24.3879 16.6392 24.3879 13.4734 22.4353 11.5208L12.8287 1.91417ZM9.29318 2.44971C10.0888 2.44971 10.8519 2.76578 11.4145 3.32839L21.0211 12.935C22.1927 14.1066 22.1927 16.0061 21.0211 17.1776L16.7785 21.4203C15.6069 22.5918 13.7074 22.5918 12.5358 21.4203L2.92922 11.8137C2.36661 11.2511 2.05054 10.488 2.05054 9.69235L2.05054 5.44971C2.05054 3.79285 3.39368 2.44971 5.05054 2.44971H9.29318ZM7.99998 6.49999C7.99998 7.60456 7.10455 8.49999 5.99998 8.49999C4.89541 8.49999 3.99998 7.60456 3.99998 6.49999C3.99998 5.39542 4.89541 4.49999 5.99998 4.49999C7.10455 4.49999 7.99998 5.39542 7.99998 6.49999Z" fill="#0073E6"/>
</g>
<defs>
<clipPath id="clip0_4026_3591">
<rect width="24" height="24" fill="white" transform="translate(0 0.5)"/>
</clipPath>
</defs>
</svg>
