<svg width="72" height="48" viewBox="0 0 72 48" fill="none" xmlns="http://www.w3.org/2000/svg">
<path d="M50.7405 14.3045L50.7197 20.3253H46.3184V0H50.7613H51.2595H54.4568C57.0727 0 58.4014 0.705883 58.4222 2.11765V12.0415C58.4222 13.4533 57.1557 14.1384 54.6021 14.1384H50.7613V14.3045H50.7405ZM54 2.34602H50.699V11.7716H54V2.34602Z" fill="#0066CC"/>
<path d="M3.71626 20.346L3.6955 26.3668H0V6.04153H3.71626H4.13149H6.80969C9.01038 6.04153 10.1107 6.74741 10.1315 8.15918V18.0831C10.1315 19.4948 9.07266 20.1799 6.93426 20.1799H3.71626V20.346ZM6.45675 8.40832H3.6955V17.8339H6.45675V8.40832V8.40832Z" fill="#0066CC"/>
<path d="M21.5087 20.1799H14.4914C12.436 20.1799 11.3979 19.4741 11.3979 18.0623L11.4187 13.9308C11.4187 12.5398 12.4775 11.8339 14.6159 11.8132H17.8339V8.40832H15.0727L15.0519 10.2768H11.4395V8.15918C11.4395 6.76817 12.5191 6.08306 14.6782 6.08306L18.2907 6.04153C20.4291 6.04153 21.5087 6.74742 21.5087 8.13842V20.1799ZM15.0934 17.8132H17.8755L17.8547 14.1799H15.0934V17.8132V17.8132Z" fill="#0066CC"/>
<path d="M29.5848 20.1799H26.346C24.2076 20.1799 23.1488 19.4741 23.1488 18.0831V8.15918C23.1696 6.74741 24.2699 6.04153 26.4706 6.04153H29.1488H29.6055H33.2803V24.2699C33.2803 25.6817 32.2007 26.3876 30.0623 26.3876H26.3876C24.2491 26.3876 23.1696 25.6817 23.1696 24.2699V22.173H26.8443V24.0415H29.6055V20.346L29.5848 20.1799ZM26.8235 17.8132H29.5848V8.40832H26.8235V17.8132Z" fill="#0066CC"/>
<path d="M44.6574 18.0623C44.6367 19.4741 43.5363 20.1592 41.3356 20.1592H37.7647C35.6055 20.1592 34.5259 19.4533 34.5259 18.0623V8.13842C34.5259 6.72666 35.6055 6.04153 37.7647 6.04153H41.4394C43.5778 6.04153 44.6367 6.74742 44.6367 8.13842V18.0623H44.6574ZM41.0034 8.40832H38.2214V17.8339H40.9827L41.0034 8.40832Z" fill="#0066CC"/>
<path d="M71.9792 2.22146C71.9792 0.809694 70.7128 0.124573 68.1592 0.124573H63.7578C61.1834 0.124573 59.8962 0.830456 59.8962 2.22146V20.3668H64.2976V14.1592H67.6194V19.3495C67.6194 32.6367 56.8858 43.3703 43.5986 43.3703C35.8962 43.3703 29.0242 39.737 24.6228 34.1107L26.8235 32.4291L17.9792 26.4706L18.3737 39.0312L21.1972 36.7889C26.3876 43.4325 34.5052 47.7094 43.5986 47.7094C59.2941 47.7094 72 34.9827 72 19.308L71.9792 2.22146ZM67.5986 11.7924H64.2768V2.44983H67.5986V11.7924Z" fill="#0066CC"/>
</svg>
