<svg viewBox="0 0 24 24" fill="none" xmlns="http://www.w3.org/2000/svg">
<path fill-rule="evenodd" clip-rule="evenodd" d="M0 7C0 4.23858 2.23858 2 5 2H19C21.7614 2 24 4.23858 24 7V17C24 19.7614 21.7614 22 19 22H5C2.23858 22 0 19.7614 0 17V7ZM5 4C3.34315 4 2 5.34315 2 7V8H22V7C22 5.34315 20.6569 4 19 4H5ZM22 10H2V17C2 18.6569 3.34315 20 5 20H19C20.6569 20 22 18.6569 22 17V10ZM4 16.5C4 15.6716 4.67157 15 5.5 15C6.32843 15 7 15.6716 7 16.5C7 17.3284 6.32843 18 5.5 18C4.67157 18 4 17.3284 4 16.5ZM9 16.5C9 15.6716 9.67157 15 10.5 15H13.5C14.3284 15 15 15.6716 15 16.5C15 17.3284 14.3284 18 13.5 18H10.5C9.67157 18 9 17.3284 9 16.5Z" fill="#BBC2D6"/>
</svg>

